<svg width="174" height="40" viewBox="0 0 174 40" fill="none" xmlns="http://www.w3.org/2000/svg">
<path d="M16.043 27.3064C13.8667 26.498 11.6281 26.3737 9.57614 26.9333C8.14596 27.3064 6.77796 28.0526 5.53432 28.9853L4.66376 29.7315L4.41504 29.9802L4.97467 30.4777C5.03685 30.4777 5.03686 30.5399 5.09904 30.602C5.22341 30.7264 5.34778 30.7886 5.53432 30.9129L5.9074 31.1617L6.28049 30.8508C6.34268 30.7886 6.46704 30.6642 6.5914 30.602C7.71068 29.6693 8.95431 29.0475 10.2601 28.7366C11.939 28.3013 13.7423 28.3635 15.5456 29.0475C17.0379 29.6071 20.0849 30.2911 23.7536 28.7366L23.878 28.6744L24.0645 28.4879C24.0645 28.4257 24.1267 28.4257 24.1889 28.3635C24.4998 27.9904 24.8107 27.6173 25.0594 27.182L26.303 25.2544L24.3132 26.3737C21.3907 27.9904 18.7169 28.3013 16.043 27.3064Z" fill="#39BE00"/>
<path d="M7.52364 20.5906C9.20255 20.1553 11.0058 20.2175 12.8091 20.9015C14.7989 21.6477 19.8978 22.7048 25.6186 17.5437L26.5513 16.611L26.6135 16.5488L26.8622 16.3001L26.7378 15.9891C26.6756 15.7404 26.5513 15.4295 26.4269 15.1186L26.116 14.248L25.4942 14.8699C25.432 14.9942 25.3076 15.0564 25.1833 15.1808C22.4473 17.979 18.2189 20.8393 13.3687 19.0982C11.1924 18.2899 8.95382 18.1655 6.90182 18.7251C4.91201 19.2848 3.17091 20.3419 1.55418 21.8342V21.7721L0.621456 22.767C0.621456 22.8291 0.559286 22.8292 0.497104 22.8913L0.310547 23.0779L0.372732 23.3266C0.434914 23.6375 0.559274 23.9484 0.621456 24.2593L0.994551 25.2542L1.61637 24.4459C1.67855 24.3215 1.80291 24.2593 1.86509 24.135C3.17091 22.9535 4.97419 21.2746 7.52364 20.5906Z" fill="#39BE00"/>
<path d="M1.49238 19.4713C2.92256 17.9789 4.53928 17.0462 6.28037 16.5487C7.95928 16.1135 9.76255 16.1757 11.5658 16.8597C17.1622 18.9117 22.0124 15.5538 24.1266 13.7506L24.9349 12.9422L25.2458 12.6935L24.9971 12.3204C24.8106 12.1338 24.6862 11.8851 24.4997 11.6364L24.1266 11.1389L23.6913 11.5742C23.6291 11.6364 23.5047 11.7607 23.4426 11.8229C20.8309 14.3102 16.7891 16.8597 12.1876 15.1186C10.0113 14.3102 7.77273 14.1858 5.72074 14.7455C4.41492 15.1186 3.17128 15.7404 1.92764 16.5487L0.621818 17.6058C0.497455 17.7302 0.435273 17.7924 0.310909 17.9167L0.186557 18.0411V18.2277C0.124375 18.6629 0.124367 19.0982 0.0621856 19.4713L0 21.0258L1.0571 19.9066C1.18146 19.7822 1.30583 19.5957 1.49238 19.4713Z" fill="#39BE00"/>
<path d="M17.8466 31.5346L17.7222 31.9077L17.8466 31.5346C17.66 31.4725 17.5357 31.4103 17.3491 31.3481C15.1728 30.5397 12.9342 30.4154 10.8822 30.975C10.4469 31.0994 10.0117 31.2237 9.57639 31.4103L8.08401 32.0943L7.71094 32.2808L8.95457 32.7161C9.32766 32.8405 9.70075 32.9648 10.0738 33.0892L10.2604 33.1514L10.4469 33.0892C10.6335 33.027 10.82 32.9026 11.0066 32.9026C11.1309 32.9026 11.2553 32.8405 11.3797 32.7783C12.872 32.4052 14.4887 32.4052 16.2298 32.9648C16.4164 33.027 16.5408 33.0892 16.7273 33.1514L17.0382 33.2757L17.2247 33.2135C17.66 33.0892 18.1575 32.9648 18.5306 32.7783L20.2717 32.1565L18.4684 31.7212C18.2818 31.659 18.0331 31.5968 17.8466 31.5346Z" fill="#39BE00"/>
<path d="M27.3597 18.6631L26.427 19.5958C26.3027 19.7202 26.1783 19.8445 26.0539 19.9689C23.5045 22.394 19.4005 25.0056 14.799 23.2645C12.6227 22.4562 10.3841 22.3318 8.33213 22.8915C6.40449 23.4511 4.66338 24.446 3.10884 25.9384L2.30048 26.8089L2.05176 27.1198L2.30048 27.4929C2.48703 27.7416 2.6114 27.9282 2.73576 28.1769L3.10884 28.7365L3.54412 28.1769C3.6063 28.1147 3.73066 27.9904 3.79284 27.9282C5.2852 26.3114 6.90193 25.3165 8.76739 24.8191C10.4463 24.3838 12.2496 24.446 14.0528 25.13C15.6074 25.6896 17.2241 25.8762 18.8408 25.6896C21.7012 25.3787 24.5616 23.762 26.6758 21.9587C26.8001 21.8344 26.9245 21.7722 27.0488 21.6478L27.2354 21.4613V21.2747C27.2354 20.9016 27.2976 20.4664 27.2976 20.0933L27.3597 18.6631Z" fill="#39BE00"/>
<path d="M3.73045 12.9423L3.54391 12.5692L3.73045 12.9423C4.10354 12.7557 4.53883 12.6313 4.91192 12.507C6.59083 12.0717 8.3941 12.1339 10.1974 12.8179C11.3788 13.2532 12.5603 13.4397 13.8661 13.4397C16.4777 13.4397 19.0894 12.507 21.5145 10.7037L22.4472 9.95752L22.7581 9.70879L22.1985 9.27351C22.0119 9.08697 21.7632 8.90043 21.5145 8.77607L21.1414 8.52734L20.8305 8.77607C20.7061 8.83825 20.6439 8.96261 20.5195 9.02479C17.2239 11.5121 13.9283 12.1961 10.8192 11.0146C8.58065 10.2063 6.34209 10.0197 4.10355 10.7037C3.917 10.7659 3.73045 10.8281 3.48173 10.8902L3.35738 10.9524L3.17082 11.139C3.17082 11.2012 3.10865 11.2012 3.04647 11.2633C2.79774 11.6364 2.48682 11.9473 2.23809 12.3204L1.05664 14.1237L2.98428 13.1288C3.29519 13.1288 3.54391 13.0044 3.73045 12.9423Z" fill="#39BE00"/>
<path d="M8.82967 8.71393L9.01621 8.77611C9.82457 9.08702 11.0682 9.39793 12.6228 9.39793C14.2395 9.39793 15.794 9.02484 17.3486 8.40302L19.2762 7.47029L17.9704 7.03503C17.5973 6.91067 17.2242 6.7863 16.7889 6.72412H16.6024L16.4159 6.78629C16.2293 6.84847 16.0428 6.97285 15.8562 7.03503C13.9908 7.71903 12.1253 7.84339 10.322 7.34594C10.1355 7.28376 9.94894 7.22156 9.7624 7.15938L9.57586 7.0972L9.3893 7.15938C9.01621 7.28375 8.64313 7.40812 8.27004 7.59466L6.83984 8.21648L8.33222 8.65174C8.45659 8.58956 8.64312 8.65175 8.82967 8.71393Z" fill="#39BE00"/>
<path d="M37.5381 29.5V28.8848L39.1924 28.748L45.6592 9.42969H46.2744L52.96 28.748L54.7646 28.8848V29.5H47.4502V28.8848L49.2959 28.748L47.6826 23.8398H41.5576L39.9717 28.748L41.8174 28.8848V29.5H37.5381ZM41.8037 23.0195L47.3818 22.9102L44.6475 14.5156H44.5928L41.8037 23.0195ZM55.5439 29.5V28.8848L57.6494 28.748V10.7422L55.5439 10.6055V9.99023H63.2549V10.6055L61.1494 10.7422V28.748L63.2549 28.8848V29.5H55.5439ZM65.5381 28.1328C65.5381 27.5586 65.7113 27.0983 66.0576 26.752C66.4131 26.3965 66.8688 26.2188 67.4248 26.2188C67.999 26.2188 68.4548 26.3965 68.792 26.752C69.1383 27.0983 69.3115 27.5586 69.3115 28.1328C69.3115 28.6888 69.1383 29.1354 68.792 29.4727C68.4548 29.8099 67.999 29.9785 67.4248 29.9785C66.8688 29.9785 66.4131 29.8099 66.0576 29.4727C65.7113 29.1263 65.5381 28.6797 65.5381 28.1328ZM71.5947 29.5V28.8848L73.7002 28.748V10.7422L71.5947 10.6055V9.99023H84.5146L84.6514 15.5547H83.8857C83.8219 14.7891 83.7126 14.1374 83.5576 13.5996C83.4027 13.0527 83.1657 12.556 82.8467 12.1094C82.5368 11.6536 82.1084 11.3118 81.5615 11.084C81.0146 10.8561 80.3493 10.7422 79.5654 10.7422C78.5173 10.7422 77.7288 10.7878 77.2002 10.8789V19.3008C77.4281 19.3099 77.5602 19.3145 77.5967 19.3145C78.2438 19.3145 78.7542 19.2826 79.1279 19.2188C79.5016 19.1458 79.8389 19 80.1396 18.7812C80.4404 18.5534 80.6501 18.2207 80.7686 17.7832C80.887 17.3457 80.9463 16.7624 80.9463 16.0332H81.6982V23.375H80.9463C80.9463 22.1263 80.7412 21.2604 80.3311 20.7773C79.9209 20.2943 79.2373 20.0527 78.2803 20.0527L77.2002 20.0664V28.748L79.8525 28.8848V29.5H71.5947ZM86.1416 16.8672V16.3066L88.999 16.0059L90.9268 15.5L91.1729 15.8965V28.8027L92.5811 28.9395V29.5H86.415V28.9395L87.8232 28.8027V16.8672H86.1416ZM87.6318 10.6465C87.6318 10.3913 87.6774 10.1543 87.7686 9.93555C87.8688 9.7168 88.001 9.52539 88.165 9.36133C88.3291 9.19727 88.5205 9.06966 88.7393 8.97852C88.958 8.88737 89.1904 8.8418 89.4365 8.8418C89.6826 8.8418 89.915 8.89193 90.1338 8.99219C90.3525 9.08333 90.5439 9.21094 90.708 9.375C90.8812 9.53906 91.0133 9.73047 91.1045 9.94922C91.2048 10.168 91.2549 10.4004 91.2549 10.6465C91.2549 10.8926 91.2048 11.125 91.1045 11.3438C91.0133 11.5625 90.8857 11.7585 90.7217 11.9316C90.5576 12.0957 90.3662 12.2279 90.1475 12.3281C89.9287 12.4193 89.6917 12.4648 89.4365 12.4648C89.1813 12.4648 88.9443 12.4193 88.7256 12.3281C88.5068 12.2279 88.3154 12.0957 88.1514 11.9316C87.9873 11.7676 87.8597 11.5762 87.7686 11.3574C87.6774 11.1387 87.6318 10.9017 87.6318 10.6465ZM94.1396 16.3066L96.9971 16.0059L98.9248 15.5L99.1709 15.8965L99.1162 17.7422H99.1709C100.256 16.1562 101.659 15.3633 103.382 15.3633C103.71 15.3633 104.024 15.3906 104.325 15.4453C104.626 15.5 104.959 15.623 105.323 15.8145C105.688 16.0059 106.002 16.2565 106.267 16.5664C106.531 16.8763 106.754 17.3184 106.937 17.8926C107.119 18.4668 107.21 19.1367 107.21 19.9023V28.8027L108.604 28.9395V29.5H102.452V28.9395L103.847 28.8027V19.5059C103.847 17.5645 103.222 16.5938 101.974 16.5938C101.153 16.5938 100.479 16.9674 99.9502 17.7148C99.4307 18.4622 99.1709 19.4421 99.1709 20.6543V28.8027L100.579 28.9395V29.5H94.4131V28.9395L95.8213 28.8027V16.8398L94.167 16.8672L94.1396 16.3066ZM110.272 26.5332C110.272 26.0866 110.341 25.6582 110.478 25.248C110.623 24.8288 110.856 24.4277 111.175 24.0449C111.494 23.6621 111.886 23.3294 112.351 23.0469C112.815 22.7643 113.39 22.541 114.073 22.377C114.766 22.2038 115.532 22.1172 116.37 22.1172C116.817 22.1172 117.241 22.1354 117.642 22.1719V20.2852C117.642 19.6836 117.628 19.196 117.601 18.8223C117.582 18.4486 117.528 18.0658 117.437 17.6738C117.345 17.2728 117.213 16.9674 117.04 16.7578C116.876 16.5391 116.639 16.3613 116.329 16.2246C116.028 16.0788 115.659 16.0059 115.222 16.0059C113.891 16.0059 112.92 16.5299 112.31 17.5781V17.6328C112.465 17.6055 112.606 17.5918 112.733 17.5918C113.207 17.5918 113.581 17.7376 113.854 18.0293C114.128 18.321 114.265 18.7402 114.265 19.2871C114.265 19.7611 114.101 20.1621 113.772 20.4902C113.444 20.8092 113.034 20.9688 112.542 20.9688C112.004 20.9688 111.58 20.7865 111.271 20.4219C110.961 20.0573 110.806 19.6289 110.806 19.1367C110.806 18.0612 111.298 17.1634 112.282 16.4434C113.276 15.7233 114.415 15.3633 115.7 15.3633C116.612 15.3633 117.386 15.459 118.024 15.6504C118.672 15.8418 119.187 16.097 119.569 16.416C119.952 16.7259 120.248 17.1543 120.458 17.7012C120.677 18.2389 120.818 18.7904 120.882 19.3555C120.955 19.9206 120.991 20.6133 120.991 21.4336V28.8027L122.399 28.9395V29.5H118.052L117.669 27.3398H117.642C117.195 28.2057 116.653 28.8529 116.015 29.2812C115.386 29.7005 114.62 29.9102 113.718 29.9102C112.606 29.9102 111.754 29.5775 111.161 28.9121C110.569 28.2467 110.272 27.4538 110.272 26.5332ZM113.581 26.2461C113.581 26.9753 113.718 27.5677 113.991 28.0234C114.265 28.4701 114.666 28.6934 115.194 28.6934C115.814 28.6934 116.375 28.306 116.876 27.5312C117.386 26.7565 117.642 25.8086 117.642 24.6875V22.8008C117.277 22.7552 116.981 22.7324 116.753 22.7324C116.279 22.7324 115.855 22.7962 115.481 22.9238C115.117 23.0514 114.825 23.2246 114.606 23.4434C114.388 23.6621 114.205 23.8945 114.06 24.1406C113.914 24.3776 113.809 24.6419 113.745 24.9336C113.681 25.2253 113.636 25.4668 113.608 25.6582C113.59 25.8496 113.581 26.0456 113.581 26.2461ZM123.808 16.3066L126.665 16.0059L128.593 15.5L128.839 15.8965L128.784 17.7422H128.839C129.924 16.1562 131.327 15.3633 133.05 15.3633C133.378 15.3633 133.692 15.3906 133.993 15.4453C134.294 15.5 134.627 15.623 134.991 15.8145C135.356 16.0059 135.67 16.2565 135.935 16.5664C136.199 16.8763 136.422 17.3184 136.604 17.8926C136.787 18.4668 136.878 19.1367 136.878 19.9023V28.8027L138.272 28.9395V29.5H132.12V28.9395L133.515 28.8027V19.5059C133.515 17.5645 132.89 16.5938 131.642 16.5938C130.821 16.5938 130.147 16.9674 129.618 17.7148C129.099 18.4622 128.839 19.4421 128.839 20.6543V28.8027L130.247 28.9395V29.5H124.081V28.9395L125.489 28.8027V16.8398L123.835 16.8672L123.808 16.3066ZM140.063 22.7188C140.063 22.0443 140.141 21.3698 140.296 20.6953C140.451 20.0208 140.697 19.3646 141.034 18.7266C141.381 18.0794 141.795 17.5098 142.278 17.0176C142.771 16.5163 143.377 16.1152 144.097 15.8145C144.817 15.5137 145.601 15.3633 146.448 15.3633C147.715 15.3633 148.763 15.7188 149.593 16.4297C150.431 17.1406 150.851 17.9883 150.851 18.9727C150.851 19.4648 150.696 19.8841 150.386 20.2305C150.076 20.5677 149.652 20.7363 149.114 20.7363C148.613 20.7363 148.203 20.5768 147.884 20.2578C147.565 19.9388 147.405 19.5378 147.405 19.0547C147.405 18.599 147.551 18.207 147.843 17.8789C148.144 17.5508 148.526 17.3867 148.991 17.3867C149.055 17.3867 149.169 17.3958 149.333 17.4141V17.3457C149.224 17.1634 149.091 16.9948 148.937 16.8398C148.791 16.6758 148.535 16.5026 148.171 16.3203C147.806 16.138 147.401 16.0469 146.954 16.0469C146.152 16.0469 145.491 16.3477 144.972 16.9492C144.452 17.5508 144.088 18.3301 143.878 19.2871C143.668 20.235 143.563 21.3607 143.563 22.6641C143.563 26.8659 144.685 28.9668 146.927 28.9668C147.218 28.9668 147.487 28.944 147.733 28.8984C147.989 28.8438 148.285 28.7435 148.622 28.5977C148.968 28.4518 149.31 28.2057 149.647 27.8594C149.985 27.513 150.308 27.0755 150.618 26.5469L151.151 26.8613C150.03 28.8939 148.426 29.9102 146.339 29.9102C142.155 29.9102 140.063 27.513 140.063 22.7188ZM152.86 22.6367C152.86 21.9258 152.929 21.2331 153.065 20.5586C153.202 19.875 153.425 19.2188 153.735 18.5898C154.045 17.9609 154.424 17.4095 154.87 16.9355C155.317 16.4616 155.868 16.0833 156.524 15.8008C157.19 15.5091 157.924 15.3633 158.726 15.3633C159.482 15.3633 160.161 15.4727 160.763 15.6914C161.364 15.901 161.866 16.1973 162.267 16.5801C162.668 16.9629 163 17.4323 163.265 17.9883C163.529 18.5352 163.716 19.1322 163.825 19.7793C163.944 20.4173 164.003 21.1191 164.003 21.8848L163.634 22.2266H156.36V23.0605C156.36 27.0345 157.491 29.0215 159.751 29.0215C161.355 29.0215 162.636 28.2194 163.593 26.6152L164.126 26.9434C162.95 28.9212 161.278 29.9102 159.108 29.9102C157.012 29.9102 155.444 29.263 154.405 27.9688C153.375 26.6745 152.86 24.8971 152.86 22.6367ZM156.36 21.6113L160.776 21.4336C160.804 20.9688 160.817 20.5221 160.817 20.0938C160.817 18.7721 160.658 17.7559 160.339 17.0449C160.029 16.334 159.509 15.9785 158.78 15.9785C158.343 15.9785 157.965 16.1243 157.646 16.416C157.336 16.6986 157.094 17.1087 156.921 17.6465C156.748 18.1842 156.616 18.7721 156.524 19.4102C156.442 20.0391 156.388 20.7728 156.36 21.6113Z" fill="white"/>
</svg>
