<svg width="177" height="39" viewBox="0 0 177 39" fill="none" xmlns="http://www.w3.org/2000/svg">
<path d="M16.043 26.8064C13.8667 25.998 11.6281 25.8737 9.57614 26.4333C8.14596 26.8064 6.77796 27.5526 5.53432 28.4853L4.66376 29.2315L4.41504 29.4802L4.97467 29.9777C5.03685 29.9777 5.03686 30.0399 5.09904 30.102C5.22341 30.2264 5.34778 30.2886 5.53432 30.4129L5.9074 30.6617L6.28049 30.3508C6.34268 30.2886 6.46704 30.1642 6.5914 30.102C7.71068 29.1693 8.95431 28.5475 10.2601 28.2366C11.939 27.8013 13.7423 27.8635 15.5456 28.5475C17.0379 29.1071 20.0849 29.7911 23.7536 28.2366L23.878 28.1744L24.0645 27.9879C24.0645 27.9257 24.1267 27.9257 24.1889 27.8635C24.4998 27.4904 24.8107 27.1173 25.0594 26.682L26.303 24.7544L24.3132 25.8737C21.3907 27.4904 18.7169 27.8013 16.043 26.8064Z" fill="#39BE00"/>
<path d="M7.52364 20.0906C9.20255 19.6553 11.0058 19.7175 12.8091 20.4015C14.7989 21.1477 19.8978 22.2048 25.6186 17.0437L26.5513 16.111L26.6135 16.0488L26.8622 15.8001L26.7378 15.4891C26.6756 15.2404 26.5513 14.9295 26.4269 14.6186L26.116 13.748L25.4942 14.3699C25.432 14.4942 25.3076 14.5564 25.1833 14.6808C22.4473 17.479 18.2189 20.3393 13.3687 18.5982C11.1924 17.7899 8.95382 17.6655 6.90182 18.2251C4.91201 18.7848 3.17091 19.8419 1.55418 21.3342V21.2721L0.621456 22.267C0.621456 22.3291 0.559286 22.3292 0.497104 22.3913L0.310547 22.5779L0.372732 22.8266C0.434914 23.1375 0.559274 23.4484 0.621456 23.7593L0.994551 24.7542L1.61637 23.9459C1.67855 23.8215 1.80291 23.7593 1.86509 23.635C3.17091 22.4535 4.97419 20.7746 7.52364 20.0906Z" fill="#39BE00"/>
<path d="M1.49238 18.9715C2.92256 17.4792 4.53928 16.5464 6.28037 16.049C7.95928 15.6137 9.76255 15.6759 11.5658 16.3599C17.1622 18.4119 22.0124 15.0541 24.1266 13.2508L24.9349 12.4424L25.2458 12.1937L24.9971 11.8206C24.8106 11.6341 24.6862 11.3854 24.4997 11.1366L24.1266 10.6392L23.6913 11.0744C23.6291 11.1366 23.5047 11.261 23.4426 11.3232C20.8309 13.8104 16.7891 16.3599 12.1876 14.6188C10.0113 13.8104 7.77273 13.6861 5.72074 14.2457C4.41492 14.6188 3.17128 15.2406 1.92764 16.049L0.621818 17.1061C0.497455 17.2304 0.435273 17.2926 0.310909 17.417L0.186557 17.5413V17.7279C0.124375 18.1632 0.124367 18.5984 0.0621856 18.9715L0 20.5261L1.0571 19.4068C1.18146 19.2824 1.30583 19.0959 1.49238 18.9715Z" fill="#39BE00"/>
<path d="M17.8466 31.0349L17.7222 31.408L17.8466 31.0349C17.66 30.9727 17.5357 30.9105 17.3491 30.8483C15.1728 30.04 12.9342 29.9156 10.8822 30.4753C10.4469 30.5996 10.0117 30.724 9.57639 30.9105L8.08401 31.5945L7.71094 31.7811L8.95457 32.2163C9.32766 32.3407 9.70075 32.4651 10.0738 32.5894L10.2604 32.6516L10.4469 32.5894C10.6335 32.5273 10.82 32.4029 11.0066 32.4029C11.1309 32.4029 11.2553 32.3407 11.3797 32.2785C12.872 31.9054 14.4887 31.9054 16.2298 32.4651C16.4164 32.5272 16.5408 32.5894 16.7273 32.6516L17.0382 32.776L17.2247 32.7138C17.66 32.5894 18.1575 32.4651 18.5306 32.2785L20.2717 31.6567L18.4684 31.2214C18.2818 31.1592 18.0331 31.0971 17.8466 31.0349Z" fill="#39BE00"/>
<path d="M27.3597 18.1631L26.427 19.0958C26.3027 19.2202 26.1783 19.3445 26.0539 19.4689C23.5045 21.894 19.4005 24.5056 14.799 22.7645C12.6227 21.9562 10.3841 21.8318 8.33213 22.3915C6.40449 22.9511 4.66338 23.946 3.10884 25.4384L2.30048 26.3089L2.05176 26.6198L2.30048 26.9929C2.48703 27.2416 2.6114 27.4282 2.73576 27.6769L3.10884 28.2365L3.54412 27.6769C3.6063 27.6147 3.73066 27.4904 3.79284 27.4282C5.2852 25.8114 6.90193 24.8165 8.76739 24.3191C10.4463 23.8838 12.2496 23.946 14.0528 24.63C15.6074 25.1896 17.2241 25.3762 18.8408 25.1896C21.7012 24.8787 24.5616 23.262 26.6758 21.4587C26.8001 21.3344 26.9245 21.2722 27.0488 21.1478L27.2354 20.9613V20.7747C27.2354 20.4016 27.2976 19.9664 27.2976 19.5933L27.3597 18.1631Z" fill="#39BE00"/>
<path d="M3.73045 12.4423L3.54391 12.0692L3.73045 12.4423C4.10354 12.2557 4.53883 12.1313 4.91192 12.007C6.59083 11.5717 8.3941 11.6339 10.1974 12.3179C11.3788 12.7532 12.5603 12.9397 13.8661 12.9397C16.4777 12.9397 19.0894 12.007 21.5145 10.2037L22.4472 9.45752L22.7581 9.20879L22.1985 8.77351C22.0119 8.58697 21.7632 8.40043 21.5145 8.27607L21.1414 8.02734L20.8305 8.27607C20.7061 8.33825 20.6439 8.46261 20.5195 8.52479C17.2239 11.0121 13.9283 11.6961 10.8192 10.5146C8.58065 9.70625 6.34209 9.51971 4.10355 10.2037C3.917 10.2659 3.73045 10.3281 3.48173 10.3902L3.35738 10.4524L3.17082 10.639C3.17082 10.7012 3.10865 10.7012 3.04647 10.7633C2.79774 11.1364 2.48682 11.4473 2.23809 11.8204L1.05664 13.6237L2.98428 12.6288C3.29519 12.6288 3.54391 12.5044 3.73045 12.4423Z" fill="#39BE00"/>
<path d="M8.82967 8.21393L9.01621 8.27611C9.82457 8.58702 11.0682 8.89793 12.6228 8.89793C14.2395 8.89793 15.794 8.52484 17.3486 7.90302L19.2762 6.97029L17.9704 6.53503C17.5973 6.41067 17.2242 6.2863 16.7889 6.22412H16.6024L16.4159 6.28629C16.2293 6.34847 16.0428 6.47285 15.8562 6.53503C13.9908 7.21903 12.1253 7.34339 10.322 6.84594C10.1355 6.78376 9.94894 6.72156 9.7624 6.65938L9.57586 6.5972L9.3893 6.65938C9.01621 6.78375 8.64313 6.90812 8.27004 7.09466L6.83984 7.71648L8.33222 8.15174C8.45659 8.08956 8.64312 8.15175 8.82967 8.21393Z" fill="#39BE00"/>
<path d="M39.8041 30V10.26H43.4161V30H39.8041ZM45.5771 30L54.5091 10.26H57.5331L66.5772 30H62.9091L60.5011 24.456L61.9571 25.436H50.1131L51.6251 24.456L49.2171 30H45.5771ZM55.9931 14.124L52.0451 23.476L51.3171 22.608H60.7251L60.1371 23.476L56.1051 14.124H55.9931ZM68.636 30V26.108H72.556V30H68.636ZM76.2533 30V10.26H89.2733V13.088H79.8653V18.688H88.6293V21.516H79.8653V30H76.2533ZM91.9968 30V15.86H95.4968V30H91.9968ZM91.8008 13.2V9.784H95.6928V13.2H91.8008ZM99.2976 30V19.388C99.2976 18.8093 99.2789 18.2213 99.2416 17.624C99.2042 17.0267 99.1482 16.4387 99.0736 15.86H102.462L102.742 18.66H102.406C102.854 17.6707 103.516 16.9147 104.394 16.392C105.271 15.8507 106.288 15.58 107.446 15.58C109.107 15.58 110.358 16.0467 111.198 16.98C112.038 17.9133 112.458 19.3693 112.458 21.348V30H108.958V21.516C108.958 20.3773 108.734 19.5653 108.286 19.08C107.856 18.576 107.203 18.324 106.326 18.324C105.243 18.324 104.384 18.66 103.75 19.332C103.115 20.004 102.798 20.9 102.798 22.02V30H99.2976ZM121.629 30.28C120.397 30.28 119.314 29.9907 118.381 29.412C117.447 28.8147 116.719 27.9653 116.197 26.864C115.674 25.7627 115.413 24.4467 115.413 22.916C115.413 21.3853 115.674 20.0787 116.197 18.996C116.719 17.8947 117.447 17.0547 118.381 16.476C119.314 15.8787 120.397 15.58 121.629 15.58C122.823 15.58 123.869 15.8787 124.765 16.476C125.679 17.0547 126.286 17.8387 126.585 18.828H126.277L126.585 15.86H129.945C129.889 16.4387 129.833 17.0267 129.777 17.624C129.739 18.2213 129.721 18.8093 129.721 19.388V30H126.249L126.221 27.088H126.557C126.258 28.0587 125.651 28.8333 124.737 29.412C123.822 29.9907 122.786 30.28 121.629 30.28ZM122.609 27.592C123.71 27.592 124.597 27.2093 125.269 26.444C125.941 25.66 126.277 24.484 126.277 22.916C126.277 21.348 125.941 20.1813 125.269 19.416C124.597 18.6507 123.71 18.268 122.609 18.268C121.507 18.268 120.621 18.6507 119.949 19.416C119.277 20.1813 118.941 21.348 118.941 22.916C118.941 24.484 119.267 25.66 119.921 26.444C120.593 27.2093 121.489 27.592 122.609 27.592ZM133.532 30V19.388C133.532 18.8093 133.513 18.2213 133.476 17.624C133.439 17.0267 133.383 16.4387 133.308 15.86H136.696L136.976 18.66H136.64C137.088 17.6707 137.751 16.9147 138.628 16.392C139.505 15.8507 140.523 15.58 141.68 15.58C143.341 15.58 144.592 16.0467 145.432 16.98C146.272 17.9133 146.692 19.3693 146.692 21.348V30H143.192V21.516C143.192 20.3773 142.968 19.5653 142.52 19.08C142.091 18.576 141.437 18.324 140.56 18.324C139.477 18.324 138.619 18.66 137.984 19.332C137.349 20.004 137.032 20.9 137.032 22.02V30H133.532ZM156.899 30.28C155.443 30.28 154.164 29.9813 153.063 29.384C151.98 28.7867 151.14 27.9373 150.543 26.836C149.946 25.716 149.647 24.3907 149.647 22.86C149.647 21.3293 149.946 20.0227 150.543 18.94C151.159 17.8573 152.008 17.0267 153.091 16.448C154.174 15.8693 155.443 15.58 156.899 15.58C157.832 15.58 158.738 15.7293 159.615 16.028C160.511 16.308 161.239 16.7187 161.799 17.26L160.735 19.696C160.231 19.2293 159.662 18.884 159.027 18.66C158.411 18.4173 157.804 18.296 157.207 18.296C155.956 18.296 154.976 18.688 154.267 19.472C153.576 20.256 153.231 21.3947 153.231 22.888C153.231 24.3813 153.576 25.5293 154.267 26.332C154.976 27.1347 155.956 27.536 157.207 27.536C157.786 27.536 158.383 27.424 158.999 27.2C159.634 26.976 160.212 26.6307 160.735 26.164L161.799 28.572C161.22 29.1133 160.483 29.5333 159.587 29.832C158.71 30.1307 157.814 30.28 156.899 30.28ZM171.071 30.28C168.7 30.28 166.843 29.6267 165.499 28.32C164.155 27.0133 163.483 25.2213 163.483 22.944C163.483 21.4693 163.772 20.1813 164.351 19.08C164.93 17.9787 165.732 17.12 166.759 16.504C167.804 15.888 169.018 15.58 170.399 15.58C171.762 15.58 172.9 15.8693 173.815 16.448C174.73 17.0267 175.42 17.8387 175.887 18.884C176.372 19.9293 176.615 21.152 176.615 22.552V23.476H166.311V21.628H174.123L173.647 22.02C173.647 20.7133 173.367 19.7147 172.807 19.024C172.266 18.3333 171.472 17.988 170.427 17.988C169.27 17.988 168.374 18.3987 167.739 19.22C167.123 20.0413 166.815 21.1893 166.815 22.664V23.028C166.815 24.5587 167.188 25.7067 167.935 26.472C168.7 27.2187 169.774 27.592 171.155 27.592C171.958 27.592 172.704 27.4893 173.395 27.284C174.104 27.06 174.776 26.7053 175.411 26.22L176.447 28.572C175.775 29.1133 174.972 29.5333 174.039 29.832C173.106 30.1307 172.116 30.28 171.071 30.28Z" fill="white"/>
</svg>
